<?xml version="1.0" encoding="utf-8"?>
<!-- Generator: Adobe Illustrator 27.1.0, SVG Export Plug-In . SVG Version: 6.00 Build 0)  -->
<svg version="1.1" id="Capa_1" xmlns="http://www.w3.org/2000/svg" xmlns:xlink="http://www.w3.org/1999/xlink" x="0px" y="0px"
	 viewBox="0 0 857 510.4" style="enable-background:new 0 0 857 510.4;" xml:space="preserve">
<style type="text/css">
	.st0{fill:none;}
	.st1{fill:#E6E6E6;}
	.st2{fill:#FFB8B8;}
	.st3{fill:#2F2E41;}
	.st4{fill:#FEC887;}
	.st5{opacity:0.2;enable-background:new    ;}
	.st6{fill:#FFFFFF;}
	.st7{fill:none;stroke:#E0E0E0;stroke-width:0.1697;stroke-miterlimit:10;}
	.st8{fill:none;stroke:#E0E0E0;stroke-width:0.5091;stroke-miterlimit:10;}
	.st9{fill:none;stroke:#535461;stroke-width:0.3394;stroke-miterlimit:10;}
	.st10{fill:#E0E0E0;}
	.st11{opacity:0.5;fill:#FFFFFF;enable-background:new    ;}
	.st12{opacity:0.1;}
	.st13{fill:url(#SVGID_1_);}
	.st14{fill:url(#SVGID_00000141422698075741398470000015050794106317995697_);}
	.st15{fill:#F7BBC3;}
	.st16{opacity:0.1;enable-background:new    ;}
	.st17{fill:#565171;}
	.st18{fill:#B77983;}
	.st19{fill:#D39999;}
	.st20{fill:#B45181;}
	.st21{fill:#74585E;}
	.st22{fill:url(#SVGID_00000007393913418938391530000011065084816479406209_);}
	.st23{fill:none;stroke:#535461;stroke-width:0.1697;stroke-miterlimit:10;}
	.st24{fill:url(#SVGID_00000143590450493189789710000011181980611831862938_);}
	.st25{fill:url(#SVGID_00000085208328284285520210000013169495594563014814_);}
</style>
<path class="st0" d="M653.6,413c0.8-1,1.9,1,3,0.3h-6.1C651.8,413.9,652.8,411.8,653.6,413z"/>
<path class="st0" d="M673.5,413.2h-1c0.2,0.2,0.4,0.3,0.7,0.5C673.3,413.6,673.4,413.4,673.5,413.2z"/>
<path class="st1" d="M645.7,412c-1.7,0-3.4,0.4-4.9,1.3h9.7C649.1,412.4,647.4,412,645.7,412z"/>
<path class="st1" d="M664.6,410.7c-2.8,0-5.6,0.9-7.9,2.5h15.8C670.2,411.6,667.4,410.7,664.6,410.7z"/>
<path class="st1" d="M771.2,394.8c-0.7-12.9-11-23.3-23.9-24.2c-12.2-0.9-23.3,7-26.6,18.8c-0.3,0-0.6,0-0.9,0
	c-11.4,0-21.5,7.5-24.7,18.5c-7.6-3.3-16.4-1.1-21.6,5.4h80.3c9.9,0,17.8-8.2,17.4-18C771.2,395.1,771.2,395,771.2,394.8z"/>
<path class="st2" d="M618.9,326.7c0,0-10.2-3.2-8.7,2.1c1.6,5.2,10.2,2.6,10.2,2.6L618.9,326.7z"/>
<path class="st3" d="M658,307c0,0-5.2-7.2-10.3,0.3c-5.1,7.5-9.8,13.6-9.8,13.6l-12.7,4.1l-7.3,0.7l2,6.5l21.3-3.1
	C641.2,329.1,664.9,315,658,307z"/>
<path class="st2" d="M634.6,346.7c0,0-8,5.6-7.4,10.6c0.5,5,4,18.9,4,18.9l7.2-1.1c0,0,0.8-10.6-1.9-14.6l12.7-7.2L634.6,346.7z"/>
<path class="st2" d="M652.3,359.9c0,0-0.5,9.8,0.8,13.8s2.7,18.9,2.7,18.9h7.4c0,0,3.5-13-0.8-18.9c0,0-1.3-7.7,2.4-11.4
	L652.3,359.9z"/>
<path class="st3" d="M650.6,332.7c0,0-17.3,10.9-17.3,14.3l13.8,11.4l4.8-5.3l-0.5,8l14.9,2.9c0,0,5.3-20.2,5-21s-1.1-12.5-1.1-12.5
	L650.6,332.7z"/>
<path class="st4" d="M638.3,373.8l-7.7,1.6l1.4,5.6c0.7,2.8,0.8,5.6,0.2,8.4l0,0c0,0,8,2.1,8,1.1c0-1.1-1.9-5.3-1.3-8.2
	S638.3,373.8,638.3,373.8z"/>
<path class="st3" d="M642.3,393.7c-0.3-1.1-2.5-5.9-2.6-5.1c-0.1,0.8-4.3,2.1-5.9,0.5c0,0-2.1-1.9-2.9,0c-0.8,1.9-2.4,5-2.4,5
	s-7.2,3.5-6.1,5.3c0.2,0.4,0.8,0.5,1.6,0.5c0,0,0,0.1,0,0.2v0.2c0,0.2,0.2,0.4,0.4,0.4h0.2c0.2,0,0.4-0.2,0.4-0.4v-0.2
	c0-0.1,0-0.1,0-0.2c0.2,0,0.4,0,0.7-0.1c-0.1,0.1-0.1,0.2-0.1,0.3v0.2c0,0.2,0.2,0.4,0.4,0.4h0.2c0.2,0,0.4-0.2,0.4-0.4v-0.2
	c0-0.2-0.1-0.3-0.2-0.4c0.6-0.1,1.2-0.2,1.9-0.4c0,0.1-0.1,0.1-0.1,0.2v0.2c0,0.2,0.2,0.4,0.4,0.4h0.2c0.2,0,0.4-0.2,0.4-0.4v-0.2
	c0-0.2-0.1-0.3-0.3-0.4c0.5-0.1,0.9-0.2,1.4-0.4c0,0.1-0.1,0.1-0.1,0.2v0.2c0,0.2,0.2,0.4,0.4,0.4h0.2c0.2,0,0.4-0.2,0.4-0.4v-0.2
	c0-0.2-0.1-0.4-0.3-0.4c1.6-0.4,2.7-0.8,2.7-0.8s1.3-0.5,2.9-1.1v0.2c0,0.2,0.2,0.4,0.4,0.4h0.2c0.2,0,0.4-0.2,0.4-0.4v-0.2
	c0-0.1-0.1-0.3-0.2-0.3c0.3-0.1,0.6-0.3,1-0.4v0.1c0,0.2,0.2,0.4,0.4,0.4h0.2c0.2,0,0.4-0.2,0.4-0.4V396c0-0.1-0.1-0.3-0.2-0.4
	c0.3-0.2,0.7-0.3,1-0.5c0,0,0,0,0,0v0.2c0,0.2,0.2,0.4,0.4,0.4h0.2c0.2,0,0.4-0.2,0.4-0.4v-0.2c0-0.2-0.1-0.4-0.3-0.4
	C641.9,394.4,642.4,394,642.3,393.7z"/>
<path class="st4" d="M663.7,391.3l-8.4-0.5c0,0,0.5,8.8-0.5,11.7s-0.5,4-0.5,4l7.4,0.5L663.7,391.3z"/>
<path class="st3" d="M663.8,410.7c0-1.1-1.2-6.3-1.5-5.5c-0.3,0.8-4.7,1.2-5.9-0.7c0,0-1.7-2.3-2.9-0.6c-1.2,1.7-3.4,4.4-3.4,4.4
	s-7.7,1.9-7.1,3.9c0.1,0.4,0.7,0.7,1.5,0.9c0,0,0,0.1-0.1,0.1l0,0.2c-0.1,0.2,0.1,0.5,0.3,0.5l0.2,0c0.2,0.1,0.5-0.1,0.5-0.3l0-0.2
	c0-0.1,0-0.1,0-0.2c0.2,0,0.4,0,0.7,0.1c-0.1,0.1-0.1,0.1-0.1,0.2l0,0.2c-0.1,0.2,0.1,0.5,0.3,0.5l0.2,0c0.2,0.1,0.5-0.1,0.5-0.3
	l0-0.2c0-0.2,0-0.3-0.1-0.4c0.6,0,1.3,0,1.9,0c-0.1,0.1-0.1,0.1-0.1,0.2l0,0.2c-0.1,0.2,0.1,0.5,0.3,0.5l0.2,0
	c0.2,0.1,0.5-0.1,0.5-0.3l0-0.2c0-0.2,0-0.3-0.2-0.4c0.5,0,1,0,1.4-0.1c-0.1,0.1-0.1,0.1-0.1,0.2l0,0.2c-0.1,0.2,0.1,0.5,0.3,0.5
	l0.2,0c0.2,0.1,0.5-0.1,0.5-0.3l0-0.2c0-0.2,0-0.4-0.2-0.5c1.6-0.1,2.8-0.2,2.8-0.2s1.4-0.2,3.1-0.5l0,0.2c-0.1,0.2,0.1,0.5,0.3,0.5
	l0.2,0c0.2,0.1,0.5-0.1,0.5-0.3l0-0.2c0-0.1,0-0.3-0.1-0.4c0.3-0.1,0.7-0.1,1-0.2l0,0.1c-0.1,0.2,0.1,0.5,0.3,0.5l0.2,0
	c0.2,0.1,0.5-0.1,0.5-0.3l0-0.2c0-0.1,0-0.3-0.1-0.4c0.4-0.1,0.7-0.2,1.1-0.3c0,0,0,0,0,0l0,0.2c-0.1,0.2,0.1,0.5,0.3,0.5l0.2,0
	c0.2,0.1,0.5-0.1,0.5-0.3l0-0.2c0-0.2-0.1-0.4-0.3-0.5C663.3,411.2,663.8,411,663.8,410.7z"/>
<circle class="st2" cx="650.6" cy="290.4" r="7.7"/>
<path class="st2" d="M657.5,289.6c0,0,4.2,5.3,6.4,5l-9.3,7.2c0,0-1.1-4.5-2.4-5S657.5,289.6,657.5,289.6z"/>
<path class="st3" d="M674.1,329.1c0,0,0-29.3-4.9-31.8c-4.9-2.5-8.2-4-8.2-4l0,0c-0.1,1.9-1.1,3.7-2.6,4.9c-1.6,1.3-3.3,2.3-4.2,2.3
	l0-0.1l-0.1-0.3l-2.7,4.2c0,0-2.4,0.5-3.2,2.1c-0.4,0.9,1.6,9.5,0.4,17.4c-1,6.7-5.3,12.7-5.4,13.4c-0.2,1.2,5-2,7.4-3.5
	c0,0,0.1,0.1,0.1,0.1s-1.3,0.5,1.3-0.3c1.5-0.5,3.6-0.5,5.1-0.4c0,0.5,0,0.8,0,1.1c0.3,2.7,13.5,6.4,15.4,5.6
	C674.3,338.9,674.1,329.1,674.1,329.1z"/>
<path class="st2" d="M664.8,339.2c0,0-8,7.2-2.7,8.5c5.3,1.3,7.4-7.4,7.4-7.4L664.8,339.2z"/>
<path class="st4" d="M655.5,357.7c0,0,3.7-3.5,5.8-1.6c2.1,1.9,3.5,3.2,3.5,3.2S658.7,355.6,655.5,357.7z"/>
<path class="st3" d="M656.4,399c0,0,2.1-1.9,3.3-0.9c1.2,1,1.9,1.8,1.9,1.8S658.2,397.8,656.4,399z"/>
<path class="st3" d="M633,380.9c0,0,1.4-2.5,2.9-1.8c1.5,0.7,2.4,1.2,2.4,1.2S634.3,379.3,633,380.9z"/>
<path class="st3" d="M672,300.9c-2.6-5.3-10.6-2.4-9.3,3.4c0,0.1,0,0.2,0.1,0.3c1.4,5.5,3.6,10.7,6.6,15.4l-2.9,13l-3.2,6.6l6.6,1.6
	l8.2-19.9C678.2,321.2,675.9,308.6,672,300.9z"/>
<polygon class="st5" points="668.2,320.3 663.2,339.4 667.4,330.4 "/>
<path class="st3" d="M655.4,281.5c0,0-4.3-4.5-8.5-1.7c-4.3,2.8-6.3,5.6-5.9,7.5s1.7,4.6,1.7,4.6s-0.8-4,2.8-4.2s8.4-2.6,8.4-2.6
	l3.3,7.1c0,0,0.5-1.6,1.8-1.2C660.2,291.3,659.2,282,655.4,281.5z"/>
<path class="st4" d="M628.1,382.7c0,0.7-0.1,1.3-0.2,2v0c-1.1,6.5-7.3,10.9-13.8,9.8c-0.9-0.2-1.9-0.4-2.7-0.8h0
	c-0.5-0.2-1-0.5-1.4-0.7c-2.9-1.7-4.9-4.6-5.5-7.9c-0.2-0.8-0.2-1.6-0.2-2.4c0-0.4,0-0.7,0-1.1v0c0.6-6.6,6.4-11.4,13-10.8
	c6.1,0.6,10.8,5.6,10.9,11.7v0C628.1,382.6,628.1,382.6,628.1,382.7z"/>
<path class="st6" d="M619.1,378.7h-5.4l-2.7-4.6l1.8-3.1l0.1,0c2.3-0.6,4.7-0.5,7,0.2l0.1,0l1.7,2.9L619.1,378.7z M614.1,378.2h4.7
	l2.4-4.1l-1.4-2.5c-2.1-0.7-4.3-0.7-6.5-0.2l-1.6,2.7L614.1,378.2z"/>
<path class="st6" d="M618.9,388.3h-5.4l-2.7-4.6l2.7-4.6h5.4l2.7,4.6L618.9,388.3z M613.8,387.7h4.7l2.4-4.1l-2.4-4.1h-4.7l-2.4,4.1
	L613.8,387.7z"/>
<path class="st6" d="M616.2,394.9c-1.7,0-3.3-0.3-4.9-1l-0.3-0.1l2.7-4.7h5.4l2.6,4.5l-0.3,0.1C619.8,394.5,618,394.9,616.2,394.9z
	 M611.8,393.5c2.9,1.2,6.3,1.1,9.2-0.2l-2.2-3.7h-4.7L611.8,393.5z"/>
<path class="st6" d="M627.9,383.5h-5.4l-2.7-4.6l2.7-4.6h2.4l0.1,0.1c2.1,2.2,3.3,5.2,3.3,8.2v0.1L627.9,383.5z M622.8,383h4.7
	l0.3-0.5c-0.1-2.9-1.2-5.6-3.1-7.7h-1.9l-2.4,4.1L622.8,383z"/>
<path class="st6" d="M622.5,393.2l-2.6-4.5l2.7-4.6h5.4l0.3,0.6l0,0.1c-0.6,3.4-2.6,6.4-5.5,8.3L622.5,393.2z M620.5,388.7l2.2,3.8
	c2.7-1.8,4.5-4.5,5-7.7l-0.1-0.2h-4.7L620.5,388.7z"/>
<path class="st6" d="M610.1,393.3l-0.2-0.1c-2.9-1.8-5-4.7-5.7-8l0-0.1l0.6-1h5.4l2.7,4.6L610.1,393.3z M604.7,385.1
	c0.7,3.1,2.5,5.8,5.2,7.5l2.2-3.9l-2.4-4.1H605L604.7,385.1z"/>
<path class="st6" d="M610.1,383h-5.4l-0.7-1.3v-0.1c0.3-3,1.6-5.8,3.8-7.9l0.1-0.1h2.2l2.7,4.6L610.1,383z M605,382.4h4.7l2.4-4.1
	l-2.4-4.1h-1.6c-2,1.9-3.3,4.5-3.6,7.3L605,382.4z"/>
<path class="st4" d="M56.3,136.7c0.6,5.4,5.1,9.6,6.1,14.9c0.1,0.7,0.2,1.4,0.2,2.1c0.2,3-0.5,6.1-0.1,9.2
	c0.6,5.7,4.1,10.2,8.5,14.1c3.3,2.9,7.2,5.5,10.8,8c9.1,6.3,17.6,14.3,21.3,24.7c2.5,6.9,2.7,14.5,4.5,21.6s6,14.5,13,16.7
	c7.5,2.4,15.8-1.6,23.6,0c8.3,1.7,14.2,9.6,22.4,11.8c10.4,2.8,20.8-4.1,31.5-5.6c5.1-0.7,10.4-0.1,15.5-0.5
	c5.7-0.5,11.3-2.3,16.3-5.2c1.7-1,3.4-2.2,4.2-4c0.7-1.6,0.6-3.3,0.4-5c-0.8-6.3-2.8-13.1,0.4-18.6c2.9-5.1,9.8-8.7,8.8-14.5
	c-0.6-3.5-4-5.6-7.2-7.2c-6.5-3.2-13.4-5.7-19.2-10c-4.2-3.1-7.7-7.4-9.3-12.3c-0.6-1.9-0.9-4-0.8-6c0.2-3.2,1.3-6.8-0.6-9.4
	c-0.8-1.1-2.1-1.8-3.4-2.3c-4.9-2-10.3-2.1-15.3-3.5c-1.7-0.5-3.4-1.2-5-2.1c-3.1-1.8-5.6-4.4-6.2-7.9c-0.4-2,0-4.2-1-6
	c-1.7-3-5.1-4.3-8.8-4.7c-4.6-0.5-9.9,0.3-13.4,0.7l-0.4,0c-4.5,0.5-9-0.5-13.4-2c-4.8-1.6-9.4-3.8-13.9-5.4
	c-0.4-0.1-0.8-0.3-1.3-0.4c-3.3-1.1-6.7-1.8-10.1-2.4c-4.8-0.7-9.7-0.9-14.6-0.6c-2.5,0.2-4.9,0.5-7.4,1c-0.7,0.1-1.4,0.3-2.1,0.4
	c-4.1,0.9-8.3,2-12.5,2c-0.3,0-0.6,0-0.9,0c-5-0.1-10.2-1.4-15,0.2c-2.2,0.7-4.3,2.1-5.1,4.2C56.3,134.1,56.2,135.4,56.3,136.7z"/>
<path class="st5" d="M62.7,153.7H67c0.1-2.3,1.6-4.3,3.8-5.1c-2-1.1-2.7-3.6-1.6-5.5c1.1-2,3.6-2.7,5.5-1.6c2,1.1,2.7,3.6,1.6,5.5
	c-0.4,0.7-0.9,1.2-1.6,1.6c2.2,0.8,3.7,2.8,3.8,5.1h0c0.2-2.2,1.7-4.2,3.8-4.9c-2-1.1-2.7-3.6-1.6-5.5s3.6-2.7,5.5-1.6
	c1.1,0.6,1.8,1.6,2,2.8c0.5-0.4,1.1-0.7,1.7-0.9c-2-1.1-2.7-3.6-1.6-5.5c1.1-2,3.6-2.7,5.5-1.6c2,1.1,2.7,3.6,1.6,5.5
	c-0.4,0.7-0.9,1.2-1.6,1.6c2.3,0.8,3.8,3,3.8,5.4v4.8h1.9V150c0-2.4,1.5-4.6,3.8-5.4c-2-1.1-2.7-3.6-1.6-5.5c1.1-2,3.6-2.7,5.5-1.6
	s2.7,3.6,1.6,5.5c-0.4,0.7-0.9,1.2-1.6,1.6c1.5,0.5,2.7,1.7,3.3,3.1c0.7-1,1.6-1.7,2.8-2.1c-2-1.1-2.7-3.6-1.6-5.5
	c1.1-2,3.6-2.7,5.5-1.6s2.7,3.6,1.6,5.5c-0.4,0.7-0.9,1.2-1.6,1.6c1.2,0.4,2.3,1.3,3,2.4v-0.7c0-2.4,1.5-4.6,3.8-5.4
	c-2-1.1-2.7-3.6-1.6-5.5c1.1-2,3.6-2.7,5.5-1.6c2,1.1,2.7,3.6,1.6,5.5c-0.4,0.7-0.9,1.2-1.6,1.6c2.3,0.8,3.8,3,3.8,5.4v6.4h2
	c0.6-1.4,1.8-2.5,3.3-3.1c-2-1.1-2.7-3.6-1.6-5.5c1.1-2,3.6-2.7,5.5-1.6c2,1.1,2.7,3.6,1.6,5.5c-0.4,0.7-0.9,1.2-1.6,1.6
	c0.4,0.1,0.8,0.3,1.1,0.6c0.3-2.1,1.7-3.9,3.8-4.6c-2-1.1-2.7-3.6-1.6-5.5c1.1-2,3.6-2.7,5.5-1.6c2,1.1,2.7,3.6,1.6,5.5
	c-0.4,0.7-0.9,1.2-1.6,1.6c1.7,0.6,3,2,3.6,3.8c0.6-0.7,1.4-1.3,2.3-1.6c-2-1.1-2.7-3.6-1.6-5.5c1.1-2,3.6-2.7,5.5-1.6
	c2,1.1,2.7,3.6,1.6,5.5c-0.4,0.7-0.9,1.2-1.6,1.6c0.6,0.2,1.2,0.6,1.7,1c0.6-1.5,1.8-2.6,3.4-3.2c-2-1.1-2.7-3.6-1.6-5.5
	c1.1-2,3.6-2.7,5.5-1.6c2,1.1,2.7,3.6,1.6,5.5c-0.4,0.7-0.9,1.2-1.6,1.6c2.3,0.8,3.8,3,3.8,5.4v1.7h10.2c1.6,0.9,3.2,1.6,5,2.1
	c5.1,1.4,10.5,1.5,15.3,3.5c1.3,0.5,2.6,1.2,3.4,2.3c1.9,2.6,0.8,6.2,0.6,9.4c-0.1,2,0.1,4.1,0.8,6H71c-4.4-3.9-7.9-8.3-8.5-14.1
	C62.2,159.8,62.8,156.7,62.7,153.7z"/>
<polyline class="st7" points="224.9,138 224.9,203.8 221.5,201.6 221.5,138 219.5,138 218.6,199.4 215.4,197 217.6,137.1 "/>
<line class="st7" x1="229.2" y1="142.7" x2="215.4" y2="143.5"/>
<line class="st7" x1="228.3" y1="146.1" x2="215.4" y2="146.6"/>
<line class="st7" x1="228.3" y1="150.2" x2="215.4" y2="150.6"/>
<line class="st7" x1="228.3" y1="153.9" x2="215.4" y2="154.5"/>
<line class="st7" x1="228.3" y1="158.2" x2="214.9" y2="158.2"/>
<line class="st7" x1="228.3" y1="162.4" x2="214.6" y2="161.9"/>
<line class="st7" x1="228.3" y1="166.3" x2="214.6" y2="165.7"/>
<line class="st7" x1="228.3" y1="170.6" x2="214.6" y2="169.6"/>
<line class="st7" x1="228.6" y1="174.3" x2="214.1" y2="172.9"/>
<line class="st7" x1="228.6" y1="178.5" x2="214.1" y2="176.3"/>
<line class="st7" x1="228.6" y1="183.5" x2="213.5" y2="180.8"/>
<line class="st7" x1="228.6" y1="189.1" x2="213.5" y2="184.7"/>
<line class="st7" x1="229" y1="194.8" x2="213" y2="188.6"/>
<line class="st7" x1="229" y1="200.1" x2="213" y2="192.3"/>
<polyline class="st7" points="211.7,137.8 209,195.7 205.4,195.7 207.6,137.8 203.7,137.8 201.2,195.7 197.3,195.7 199.5,137.8 
	194.7,137.8 193,195.7 188.8,195.7 190.6,138.3 186.2,138.3 185.2,195.7 181.3,195.7 182.5,137.8 178.6,137.8 177.7,195.7 
	174,195.7 174.9,137.8 170.4,137.8 170.4,195.7 166,195.7 166,137.8 162,137.8 162.6,195.7 159.1,195.7 158.1,137.8 154,137.8 
	155.3,195.7 151.8,195.7 150.1,137.8 146.5,137.8 147.9,195.7 144.6,195.7 142.1,137.8 138.7,137.8 141.4,195.7 138,195.7 
	134.3,137.8 130.2,137.8 135,195.7 131.8,195.7 127.2,137.8 123.9,137.8 128.7,195.7 125.1,195.7 120.6,137.1 117.3,137.1 
	122.6,195.7 119.2,195.7 113.8,137.1 "/>
<polyline class="st7" points="106.1,138 111.2,196.7 108.7,198.7 104.8,138 102.1,138 104.8,200.9 100.9,203.5 99.3,137.1 "/>
<line class="st7" x1="95.6" y1="144.6" x2="111.2" y2="144.6"/>
<line class="st7" x1="95.6" y1="148.9" x2="111.2" y2="148.9"/>
<line class="st7" x1="95.6" y1="153.6" x2="111.2" y2="153.1"/>
<line class="st7" x1="95.6" y1="157.7" x2="111.9" y2="156.8"/>
<line class="st7" x1="95.6" y1="162.3" x2="111.9" y2="161.6"/>
<line class="st7" x1="95.6" y1="167.2" x2="112.6" y2="166.3"/>
<line class="st7" x1="95.6" y1="171.9" x2="112.6" y2="170.2"/>
<line class="st7" x1="95.6" y1="177.4" x2="112.6" y2="173.3"/>
<line class="st7" x1="95.6" y1="182.1" x2="113.3" y2="176.2"/>
<line class="st7" x1="95.6" y1="187" x2="113.3" y2="180.2"/>
<line class="st7" x1="95.1" y1="191.8" x2="112.7" y2="184.4"/>
<line class="st7" x1="95.1" y1="197.2" x2="113.3" y2="188.1"/>
<line class="st7" x1="95.1" y1="202.1" x2="113.8" y2="191.8"/>
<line class="st7" x1="215.4" y1="142.7" x2="111.2" y2="143.6"/>
<line class="st7" x1="215.3" y1="145.8" x2="111.1" y2="146.6"/>
<line class="st7" x1="215.2" y1="148.9" x2="111.1" y2="149.7"/>
<line class="st7" x1="215.2" y1="151.9" x2="111" y2="152.8"/>
<line class="st7" x1="215.1" y1="155" x2="110.9" y2="155.8"/>
<line class="st7" x1="215" y1="158" x2="112.2" y2="158.9"/>
<line class="st7" x1="214.9" y1="161.1" x2="112.1" y2="161.9"/>
<line class="st7" x1="214.8" y1="164.1" x2="112" y2="165"/>
<line class="st7" x1="214.7" y1="167.2" x2="111.9" y2="168"/>
<line class="st7" x1="214.6" y1="170.2" x2="112.8" y2="171.1"/>
<line class="st7" x1="214.6" y1="173.3" x2="112.7" y2="174.1"/>
<line class="st7" x1="214.5" y1="176.3" x2="112.7" y2="177.2"/>
<line class="st7" x1="214.4" y1="179.4" x2="113.3" y2="180.2"/>
<line class="st7" x1="214.3" y1="182.5" x2="113.2" y2="183.3"/>
<line class="st7" x1="214.2" y1="185.5" x2="113.6" y2="186.4"/>
<line class="st7" x1="214.1" y1="188.6" x2="113.5" y2="189.4"/>
<line class="st7" x1="214.1" y1="191.6" x2="113.4" y2="192.5"/>
<polyline class="st8" points="229,206.7 213.5,195.7 113.3,195.7 95.6,206.7 "/>
<path class="st9" d="M229.9,194.8c0,0,0.4-11.6,6.7-18.1c2.6-2.7,4.3-6.2,4.8-10c0.2-1.8,0.3-3.6,0.1-5.4"/>
<path class="st4" d="M245.5,157.1c-0.4,1.3-4,4.3-4,4.3s-1.1-4.5-0.7-5.8c0.4-1.3,1.9-2,3.1-1.5
	C245.2,154.5,245.9,155.8,245.5,157.1L245.5,157.1z"/>
<path class="st4" d="M247,165.5c-1.1,0.8-5.7,1.4-5.7,1.4s1.5-4.4,2.6-5.2c1-0.9,2.6-0.7,3.5,0.3C248.2,163.1,248.1,164.6,247,165.5
	C247,165.5,247,165.5,247,165.5L247,165.5z"/>
<path class="st4" d="M242.8,177.7c-1.3,0.2-5.6-1.7-5.6-1.7s3.5-3,4.9-3.2c1.4-0.2,2.6,0.8,2.8,2.1
	C244.9,176.3,244.1,177.5,242.8,177.7L242.8,177.7z"/>
<path class="st4" d="M237.5,186.2c-1.3,0.4-5.8-0.7-5.8-0.7s3-3.6,4.3-4c1.3-0.4,2.7,0.2,3.1,1.5S238.9,185.8,237.5,186.2
	C237.5,186.2,237.5,186.2,237.5,186.2L237.5,186.2z"/>
<path class="st4" d="M236.3,165.6c0.6,1.2,4.6,3.6,4.6,3.6s0.4-4.6-0.3-5.9c-0.6-1.2-2.1-1.7-3.3-1.1
	C236.1,162.9,235.7,164.4,236.3,165.6L236.3,165.6z"/>
<path class="st4" d="M230.2,175.6c1,1,5.5,2,5.5,2s-1-4.5-2-5.5c-1-0.9-2.5-0.9-3.5,0C229.3,173.1,229.3,174.6,230.2,175.6z"/>
<path class="st4" d="M225.7,186.1c0.8,1.1,5.1,2.9,5.1,2.9s-0.3-4.7-1-5.8c-0.8-1.1-2.3-1.4-3.4-0.6
	C225.2,183.4,224.9,185,225.7,186.1C225.7,186.1,225.7,186.1,225.7,186.1L225.7,186.1z"/>
<path class="st9" d="M232.5,205.1c0,0,0.4-11.6,6.7-18.1c2.6-2.7,4.3-6.2,4.8-10c0.2-1.8,0.3-3.6,0.1-5.4"/>
<path class="st4" d="M248,167.5c-0.4,1.3-4,4.3-4,4.3s-1.1-4.5-0.7-5.8c0.4-1.3,1.9-2,3.1-1.5C247.7,164.8,248.4,166.2,248,167.5
	L248,167.5z"/>
<path class="st4" d="M249.5,175.9c-1.1,0.8-5.7,1.4-5.7,1.4s1.5-4.4,2.6-5.2c1-0.9,2.6-0.7,3.5,0.3
	C250.8,173.4,250.7,175,249.5,175.9C249.6,175.9,249.6,175.9,249.5,175.9L249.5,175.9z"/>
<path class="st4" d="M245.3,188.1c-1.3,0.2-5.6-1.7-5.6-1.7s3.5-3,4.9-3.2c1.4-0.2,2.6,0.8,2.8,2.1
	C247.5,186.7,246.6,187.9,245.3,188.1L245.3,188.1z"/>
<path class="st4" d="M240,196.6c-1.3,0.4-5.8-0.7-5.8-0.7s3-3.6,4.3-4c1.3-0.4,2.7,0.2,3.1,1.5S241.4,196.1,240,196.6
	C240.1,196.6,240.1,196.6,240,196.6L240,196.6z"/>
<path class="st4" d="M238.8,175.9c0.6,1.2,4.6,3.6,4.6,3.6s0.4-4.6-0.3-5.9c-0.6-1.2-2.1-1.7-3.3-1.1
	C238.7,173.2,238.2,174.7,238.8,175.9L238.8,175.9z"/>
<path class="st4" d="M232.8,185.9c1,1,5.5,2,5.5,2s-1-4.5-2-5.5c-1-0.9-2.5-0.9-3.5,0C231.9,183.5,231.9,185,232.8,185.9z"/>
<path class="st4" d="M228.3,196.5c0.8,1.1,5.1,2.9,5.1,2.9s-0.3-4.7-1-5.8c-0.8-1.1-2.3-1.4-3.4-0.6
	C227.7,193.8,227.5,195.3,228.3,196.5C228.2,196.5,228.2,196.5,228.3,196.5L228.3,196.5z"/>
<path class="st10" d="M93.1,143.2c0.1-3.3,2.4-6.2,5.6-6.9l0.1,0c0.1,0,0.3,0,0.4,0h127c1.9,0,3.7,1,4.7,2.6l0,0.1
	c0.2,0.3,0.3,0.7,0.3,1.1l1.2,66.7h-4.1l-1.4-65.2c0,0,0-1.9-1.7-2c-0.3,0-3.4,0-8.6-0.1l-3,56.4H212l3.3-56.4c-22.6,0-78,0-103.7,0
	l3.3,56h-1.7l-3-56l-9.8,0c-1.5,0-2.8,0.8-3.5,2l-1.4,65.2h-4.1L93.1,143.2z"/>
<path class="st9" d="M91.5,208.1c0,0-0.5-9,3.8-14.5c1.8-2.3,2.9-5.1,3-8.1c0-1.4-0.1-2.8-0.3-4.2"/>
<path class="st4" d="M100.7,177.9c-0.2,1-2.8,3.6-2.8,3.6S96.8,178,97,177c0.2-1,1.3-1.7,2.3-1.4C100.3,175.8,101,176.8,100.7,177.9
	L100.7,177.9L100.7,177.9z"/>
<path class="st4" d="M102.5,184.3c-0.8,0.7-4.3,1.5-4.3,1.5s0.9-3.5,1.6-4.2c0.8-0.7,2-0.7,2.7,0
	C103.3,182.3,103.3,183.5,102.5,184.3L102.5,184.3L102.5,184.3z"/>
<path class="st4" d="M100.1,194c-1,0.3-4.5-0.9-4.5-0.9s2.5-2.6,3.5-2.8c1-0.3,2.1,0.4,2.3,1.4C101.8,192.7,101.2,193.7,100.1,194
	L100.1,194z"/>
<path class="st4" d="M96.7,200.9c-1,0.4-4.5-0.1-4.5-0.1s2-3,3-3.4c1-0.4,2.1,0,2.5,0.9C98.1,199.3,97.7,200.5,96.7,200.9
	C96.7,200.9,96.7,200.9,96.7,200.9L96.7,200.9z"/>
<path class="st4" d="M94.3,185.1c0.6,0.9,3.8,2.4,3.8,2.4s-0.1-3.6-0.6-4.5c-0.6-0.9-1.8-1.1-2.6-0.6
	C93.9,183,93.7,184.2,94.3,185.1z"/>
<path class="st4" d="M90.3,193.2c0.8,0.7,4.4,1.2,4.4,1.2s-1.1-3.4-2-4.1c-0.8-0.7-2-0.6-2.7,0.3C89.4,191.4,89.5,192.6,90.3,193.2
	L90.3,193.2z"/>
<path class="st4" d="M87.6,201.7c0.7,0.8,4.1,1.9,4.1,1.9s-0.5-3.6-1.2-4.4c-0.7-0.8-1.9-0.9-2.7-0.2
	C87,199.7,86.9,200.9,87.6,201.7L87.6,201.7z"/>
<path class="st11" d="M100.7,177.9c-0.2,1-2.8,3.6-2.8,3.6S96.8,178,97,177c0.2-1,1.3-1.7,2.3-1.4
	C100.3,175.8,101,176.8,100.7,177.9L100.7,177.9L100.7,177.9z"/>
<path class="st11" d="M102.5,184.3c-0.8,0.7-4.3,1.5-4.3,1.5s0.9-3.5,1.6-4.2c0.8-0.7,2-0.7,2.7,0
	C103.3,182.3,103.3,183.5,102.5,184.3L102.5,184.3L102.5,184.3z"/>
<path class="st11" d="M100.1,194c-1,0.3-4.5-0.9-4.5-0.9s2.5-2.6,3.5-2.8c1-0.3,2.1,0.4,2.3,1.4C101.8,192.7,101.2,193.7,100.1,194
	L100.1,194z"/>
<path class="st11" d="M96.7,200.9c-1,0.4-4.5-0.1-4.5-0.1s2-3,3-3.4c1-0.4,2.1,0,2.5,0.9C98.1,199.3,97.7,200.5,96.7,200.9
	C96.7,200.9,96.7,200.9,96.7,200.9L96.7,200.9z"/>
<path class="st11" d="M94.3,185.1c0.6,0.9,3.8,2.4,3.8,2.4s-0.1-3.6-0.6-4.5c-0.6-0.9-1.8-1.1-2.6-0.6
	C93.9,183,93.7,184.2,94.3,185.1z"/>
<path class="st11" d="M90.3,193.2c0.8,0.7,4.4,1.2,4.4,1.2s-1.1-3.4-2-4.1c-0.8-0.7-2-0.6-2.7,0.3C89.4,191.4,89.5,192.6,90.3,193.2
	L90.3,193.2z"/>
<path class="st11" d="M87.6,201.7c0.7,0.8,4.1,1.9,4.1,1.9s-0.5-3.6-1.2-4.4c-0.7-0.8-1.9-0.9-2.7-0.2
	C87,199.7,86.9,200.9,87.6,201.7L87.6,201.7z"/>
<g class="st12">
	
		<linearGradient id="SVGID_1_" gradientUnits="userSpaceOnUse" x1="527.1041" y1="287.8512" x2="527.1041" y2="287.8936" gradientTransform="matrix(-1 0 0 -1 648.2 461.45)">
		<stop  offset="0" style="stop-color:#808080;stop-opacity:0.25"/>
		<stop  offset="0.54" style="stop-color:#808080;stop-opacity:0.12"/>
		<stop  offset="1" style="stop-color:#808080;stop-opacity:0.1"/>
	</linearGradient>
	<path class="st13" d="M121.1,173.6C121.1,173.6,121.1,173.6,121.1,173.6L121.1,173.6z"/>
</g>
<linearGradient id="SVGID_00000176757344616839845090000014764140550509733812_" gradientUnits="userSpaceOnUse" x1="482.5933" y1="230.4678" x2="482.5933" y2="296.8983" gradientTransform="matrix(-1 0 0 -1 648.2 461.45)">
	<stop  offset="0" style="stop-color:#808080;stop-opacity:0.25"/>
	<stop  offset="0.54" style="stop-color:#808080;stop-opacity:0.12"/>
	<stop  offset="1" style="stop-color:#808080;stop-opacity:0.1"/>
</linearGradient>
<path style="fill:url(#SVGID_00000176757344616839845090000014764140550509733812_);" d="M149.2,175.9c0,1.1,0.6,1.5,0.6,1.5
	l6.3,5.5c2.4,0.9,2.7,5.5,2.7,5.5c0.2,0.4,0.3,1.2,0.3,2c0,2.7-0.8,6.5-0.8,6.5l0,0l0,0.1l0,0l0,0.1c0.1,0.2,0.2,0.4,0.4,0.6
	c-0.7,1.4-1.9,3.6-2.5,4.1c-0.8,0.7-2.3,5.5-2.3,5.5l0,0l0,0.2h0c-0.4,0.7-0.7,1.6-0.8,2.5c-0.1,0.6-0.2,1.2-0.4,1.7
	c-0.2,0.7-0.2,1.4-0.1,2c0.1,0.5,0.2,1.1,0.3,1.6c0.1,1.1,0.4,2.1,0.8,3.1c0.7,1.6,1.6,3.9,1.7,4.3c0,0.2,0.1,0.6,0.2,1l0,0
	l-1.6,3.7c0,0-0.5,1-1.4,1c-0.3,0-0.6,0.3-0.6,0.6c0,0,0,0.1,0,0.1c0,0.1,0,0.2,0,0.3l0,0v0c0,0,0,0,0,0.1l0,0c0,0,0,0,0,0l0,0l0,0
	l0,0l0,0l0,0l0.1,0l0,0l0.1,0l0,0l0.1,0l0.1,0l0.1,0l0.1,0l0.1,0l0.1,0l0.1,0l0.1,0l0.1,0l0.1,0l0.1,0l0.1,0h0.1h0.1h0.2h0.2h0.1
	c0.1,0,0.2,0,0.3,0c2.9-0.3,5.1-2.5,5.1-2.5v0v0l0,0v0l0,0c0,0-0.2-2.9-1.3-3.6c-0.1-0.5-0.2-1.1-0.2-1.7c0-2,0.6-4.1-1.1-7.4
	c0,0-0.1-0.9,0.5-2.2c0.4-0.7,0.7-1.4,1.2-2l0.1,0l-0.1,0.2c0,0,2-0.1,2.1-1.5c0-0.1,0-0.2,0.1-0.3c0.5-1.3,2.7-3.2,3.6-3.3
	c1.1-0.1,3.2,2.3,4,4.1c0,0.1,0.1,0.2,0.1,0.3c0.8,1.4,1.8,1.1,1.8,1.1c0,0-0.1-0.1-0.1-0.1c0,0,0.1,0,0.1,0
	c-0.1-0.1-0.2-0.2-0.2-0.3c0.8,0.8,1.6,1.6,1.9,2c0.8,0.9,0.4,1.6,0.4,1.9c0,1.3-1.7,5.2-1.3,7.3c0.2,1,0,2.3-0.3,3.2h-0.1
	c-1.3,0.5-1.4,2.2-1.4,3.1c0,0,0,0.1,0,0.1l0,0c0,0,0,0.1,0,0.1v0c0,0,0,0.1,0,0.1v0c0,0,0,0.1,0,0.1l0,0c0,0,0,0.1,0,0.1v0v0.1v0v0
	v0c0,0,3.6,1.6,6.7,2c0.1,0,0.2,0,0.3,0h0.1l0.2,0h0.3h0.1c0.1,0,0.1,0,0.2,0h0.1c0.1,0,0.1,0,0.2,0l0,0c0,0,0.1,0,0.1,0l0.1,0
	l0.1,0l0.1,0c0,0,0.1,0,0.1,0l0,0c0,0,0.1,0,0.1-0.1l0,0c0,0,0.1-0.1,0.1-0.1l0,0c0,0,0,0,0-0.1l0,0c0,0,0,0,0-0.1l0,0
	c0,0,0,0,0-0.1v0c0,0,0-0.1,0-0.1c0,0,0,0,0,0c0,0,0-0.1,0-0.1c0,0,0,0,0,0l0,0c0-0.4-0.3-0.9-0.7-0.8c-0.8,0.1-1.7-0.7-1.7-0.7
	l-2.1-3.4c0-0.8,0.1-1.8,0.6-2.6c1-1.6,2.2-5,2.2-5s-0.2-2.1,0.5-3.1c0.6-1,0-2.6,0-2.6l-1.8-3.6c0.2,0,0.3,0,0.3,0l-0.1-0.1h0.1
	c0,0-2.3-5-3.2-5.6c-0.6-0.4-1.6-2.8-2-4.1c0.2-0.1,0.3-0.2,0.3-0.2s0.5-6.3,0.5-10.4c0-4,2.7-5.6,2.7-5.6l6.3-3.7
	c1.7-0.7,1.9-2.3,1.9-2.3l0,0c0-0.1,0-0.1,0-0.1l0,0c0-0.1,0-0.1,0-0.1l-3-7.7c0,0,0,0,0,0.1c-0.2-1.3-0.9-3.4-2.9-3.6
	c-3-0.2-4.1,1.3-3.5,1.5s3.2,1.2,3.2,1.2l1,1.6c-0.1,0-0.1,0-0.1,0c0.1,0,0.1,0.1,0.1,0.1l0.1,0.1c-0.1,0-0.2-0.1-0.2-0.1
	c0,0,0,0,0.1,0c0,0,0,0,0,0c0,0,0,0,0,0c0,0,0,0,0,0c0,0,0,0,0,0.1l0,0c-0.1,0-0.2,0-0.2-0.1c0.8,0.3,1.1,5.1,1.2,6.3l-3.9,1.7
	c0,0-3.9,0-5.6,0.9c-1.5,0.8-2.2,0.1-2.3,0c0.1,0.1,0.2,0.3,0.3,0.4l0,0l0,0l0,0l0,0l0,0l0,0c-0.3-0.6-0.6-1.3-0.7-2.1
	c0.4-0.9,0.4-1.9-0.1-2.8c0.1,0,0.1,0.1,0.2,0.1c-0.2-0.3-0.3-0.7-0.3-1c0-0.4,0.1-0.8-0.1-1.2c0,0,0-0.1-0.1-0.1c0,0,0,0,0,0
	c-0.2-0.4-0.6-0.6-0.8-0.9c-0.2-0.2-0.3-0.5-0.4-0.7c-0.4-0.5-1.2-0.7-1.8-0.5c-0.2,0.1-0.5,0.3-0.7,0.3c-0.1,0-0.3,0-0.4-0.1
	c-0.8-0.2-1.7,0-2.4,0.5c-0.7,0.5-1.2,1.1-1.6,1.9c-0.2,0.4-0.3,0.8-0.4,1.2c0,0.4,0,0.9,0,1.3c0,0.7-0.1,1.5,0.2,2.1
	c0,0,0,0.1,0.1,0.1c0,0,0,0,0,0c0.3,0.6,0.9,1,1.5,1.4l0.7,0.5l0.1,0.1c-0.2,0-0.4,0-0.6,0c-1.1,0.1-3.4-1-3.4-1l-2.4-2.1l1.2-4.7
	l0,0l0-0.2l0,0l0-0.2c0,0,0,0-0.1,0l1.2-1.9c0,0,2.6-1,3.2-1.2c0.6-0.1-0.5-1.7-3.5-1.5c-2.2,0.2-2.8,2.6-3,3.9
	c-0.1-0.1-0.2-0.2-0.2-0.2l-2.1,5c-0.2,0.5-0.3,1-0.3,1.5C149.2,175.8,149.2,175.9,149.2,175.9z M166.3,178.5L166.3,178.5
	L166.3,178.5L166.3,178.5z M160.2,178.5c0.2-0.1,0.3-0.2,0.4-0.3c0.2,0.1,0.4,0.1,0.6,0.2c-0.1,0.2-0.1,0.4-0.2,0.5
	c0-0.1,0-0.2,0-0.2C160.7,178.6,160.5,178.5,160.2,178.5L160.2,178.5z M159,210.2c0.2-0.3,0.3-0.5,0.5-0.8
	C159.3,209.7,159.1,210,159,210.2z"/>
<path class="st15" d="M174.4,207.2l2.2,4.3c0,0,0.6,1.6,0,2.6c-0.6,1-0.4,3.1-0.4,3.1s-1.2,3.4-2.1,5c-0.9,1.6-0.4,3.9-0.4,3.9
	l-3.8,0.4c0,0,1.4-2.8,1-4.9c-0.4-2.1,1.2-5.9,1.2-7.2c0-0.3,0.4-0.9-0.4-1.9c-0.7-0.9-3.5-3.3-3.4-4.7L174.4,207.2z"/>
<path class="st15" d="M155.3,206.2c0,0-1.4,1.9-1.5,3.8c0,0.6-0.2,1.2-0.3,1.7c-0.2,0.6-0.2,1.3-0.1,2c0.1,0.5,0.2,1.1,0.3,1.6
	c0.1,1,0.3,2.1,0.7,3.1c0.7,1.6,1.5,3.8,1.6,4.3c0.1,0.7,0.4,2.5,0.4,2.5l2.9,1.1c0,0-0.9-2.1-0.9-4.1c0-2,0.6-4-1-7.4
	c0,0-0.1-0.9,0.5-2.2c0.6-1.3,2.8-4.7,2.8-4.7L155.3,206.2z"/>
<path class="st16" d="M159.9,208.8c0.2,0.3-1,1.9-1,1.9s1.9-0.1,2-1.4c0-0.1,0-0.2,0.1-0.3c0.4-1.3,2.5-3.2,3.5-3.3
	c1-0.1,3,2.3,3.8,4c0,0.1,0.1,0.2,0.1,0.3c0.8,1.4,1.7,1.1,1.7,1.1c-0.5-0.6-0.6-1.1-0.5-1.5c0.6-1.6,5.4-1.5,5.4-1.5s-2.2-5-3-5.6
	c-0.9-0.6-2.2-4.9-2.2-4.9s-10.3-1.2-10.4-0.6c-0.1,0.5-2.1,4.5-2.8,5.1c-0.7,0.6-2.2,5.5-2.2,5.5
	C156.9,206.8,159.6,208.5,159.9,208.8L159.9,208.8z"/>
<path class="st17" d="M159.9,208.6c0.2,0.3-1,1.9-1,1.9s1.9-0.1,2-1.4c0-0.1,0-0.2,0.1-0.3c0.4-1.3,2.5-3.2,3.5-3.3
	c1-0.1,3,2.3,3.8,4c0,0.1,0.1,0.2,0.1,0.3c0.8,1.4,1.7,1.1,1.7,1.1c-0.5-0.6-0.6-1.1-0.5-1.5c0.6-1.6,5.4-1.5,5.4-1.5s-2.2-5-3-5.6
	c-0.9-0.6-2.2-4.9-2.2-4.9s-10.3-1.2-10.4-0.6c-0.1,0.5-2.1,4.5-2.8,5.1s-2.2,5.5-2.2,5.5C156.9,206.6,159.6,208.4,159.9,208.6
	L159.9,208.6z"/>
<path class="st16" d="M173.5,224.8l2,3.4c0,0,0.9,0.9,1.7,0.7c0.7-0.1,1.4,2-1.5,1.6c-3-0.4-6.4-2-6.4-2s-0.3-2.9,1.3-3.6
	L173.5,224.8z"/>
<path class="st16" d="M156,223.6l-1.6,3.6c0,0-0.4,1-1.3,1c-0.9,0-1.2,1.8,1.7,1.5s4.9-2.5,4.9-2.5s-0.2-3.5-1.5-3.7
	C157.5,223.4,156.7,223.4,156,223.6z"/>
<path class="st18" d="M173.5,224.9l2,3.4c0,0,0.9,0.9,1.7,0.7s1.4,2-1.5,1.6s-6.4-2-6.4-2s-0.3-2.9,1.3-3.6L173.5,224.9z"/>
<path class="st18" d="M156,223.7l-1.6,3.6c0,0-0.4,1-1.3,1c-0.9,0-1.2,1.8,1.7,1.5c2.8-0.3,4.9-2.5,4.9-2.5s-0.2-3.5-1.5-3.7
	C157.5,223.6,156.7,223.6,156,223.7z"/>
<g class="st12">
	<path d="M159.8,196.7c-0.1,0.5-2.1,4.5-2.8,5.1c-0.7,0.6-1.9,4.7-2.1,5.4c-0.1,0-0.3,0.1-0.4,0.1c0,0,1.4-4.8,2.2-5.5
		s2.7-4.6,2.8-5.1c0-0.1,0.4-0.1,1.1-0.1C160.1,196.6,159.8,196.7,159.8,196.7z"/>
	<path d="M164.9,205.5c1-0.1,3,2.3,3.8,4c0,0.1,0.1,0.2,0.1,0.3c0.4,0.8,1,1.1,1.3,1.1c-0.2,0-1,0.1-1.7-1.1c0-0.1-0.1-0.2-0.1-0.3
		C167.6,207.9,165.8,205.7,164.9,205.5L164.9,205.5z"/>
	<path d="M159.9,208.6L159.9,208.6c-0.2-0.2-2-1.4-4-1.4c2.1-0.1,4.1,1.2,4.4,1.4l0,0c0.2,0.2-0.7,1.5-0.9,1.8
		c-0.1,0-0.3,0.1-0.4,0.1C158.9,210.5,160.2,208.9,159.9,208.6z"/>
</g>
<path class="st15" d="M178.5,169.5c0,0,0-4.4-2.9-4.6c-2.9-0.2-3.9,1.3-3.3,1.4c0.6,0.1,3,1.2,3,1.2l1.6,2.7L178.5,169.5z"/>
<path class="st15" d="M152.4,170.6c0,0,0-4.4,2.9-4.6c2.9-0.2,3.9,1.3,3.3,1.4c-0.6,0.1-3,1.2-3,1.2l-1.6,2.7L152.4,170.6z"/>
<path class="st15" d="M165.4,175.1c0,0-0.2,2.9,1.6,4.5s-4.2,3.8-4.2,3.8l-2.7-3.2c0,0,2.2-1.3,1-3.5L165.4,175.1z"/>
<path class="st16" d="M166,178.5c0,0,0.6,1,2.2,0.1s5.3-0.9,5.3-0.9l3.8-1.7c0,0-0.3-6.2-1.2-6.5c0,0,1.7,0.7,2.2-0.7l2.9,7.6
	c0,0-0.2,1.7-1.8,2.3l-6,3.7c0,0-2.6,1.6-2.6,5.6c0,4-0.5,10.2-0.5,10.2s-8.4,5-11.8-0.9c0,0,1.4-7,0.4-8.7c0,0-0.3-4.5-2.6-5.4
	l-6-5.5c0,0-1.2-0.7-0.3-2.8l2-5c0,0,1.2,1.7,2.2,0.9l-1.2,4.9l2.3,2.2c0,0,2.2,1.1,3.2,1s2.3,0.4,2.3,0.4s0.5,2.9,2.8,2.6
	C164,181.8,168.4,181.6,166,178.5z"/>
<path class="st16" d="M166,178.2c0,0,0.6,1,2.2,0.1s5.3-0.9,5.3-0.9l3.8-1.7c0,0-0.3-6.2-1.2-6.5c0,0,1.7,0.7,2.2-0.7l2.9,7.6
	c0,0-0.2,1.7-1.8,2.3l-6,3.7c0,0-2.6,1.6-2.6,5.6c0,4-0.5,10.2-0.5,10.2s-8.4,5-11.8-0.9c0,0,1.4-7,0.4-8.7c0,0-0.3-4.5-2.6-5.4
	l-6-5.5c0,0-1.2-0.7-0.3-2.8l2-5c0,0,1.2,1.7,2.2,0.9l-1.2,4.9l2.3,2.2c0,0,2.2,1.1,3.2,1s2.3,0.4,2.3,0.4s0.5,2.9,2.8,2.6
	C164,181.5,168.4,181.3,166,178.2z"/>
<path class="st19" d="M166,178.3L166,178.3L166,178.3z"/>
<path class="st20" d="M150.5,177.5l6,5.5c2.3,0.9,2.6,5.4,2.6,5.4c0.9,1.7-0.4,8.7-0.4,8.7c3.4,5.9,11.8,0.9,11.8,0.9s0-0.2,0-0.6
	c0-0.3,0.1-0.8,0.1-1.3c0-0.7,0.1-1.5,0.2-2.4c0.1-1.9,0.2-4.2,0.2-6c0-4,2.6-5.6,2.6-5.6l4.5-2.8l1.5-0.9c1.6-0.6,1.8-2.3,1.8-2.3
	l-2.9-7.6c-0.5,1.3-2,0.8-2.2,0.7c0.8,0.4,1.1,6.5,1.1,6.5l-3.8,1.7c0,0-3.8,0-5.3,0.9c-1.4,0.8-2,0.2-2.2,0
	c2.3,3.1-2.1,3.3-2.1,3.3c-2.3,0.3-2.8-2.6-2.8-2.6s-1.2-0.5-2.3-0.4c-1.1,0.1-3.2-1-3.2-1l-2.3-2.2l1.2-4.9c-1,0.9-2.2-0.9-2.2-0.9
	l-2,5C149.3,176.8,150.5,177.5,150.5,177.5z"/>
<path class="st16" d="M165.4,175.4c0,0.5,0,0.9,0.1,1.4c-0.6,1.6-2.4,2.5-4.1,2.1c0.2-0.6,0.1-1.3-0.3-1.9L165.4,175.4z"/>
<circle class="st15" cx="162.2" cy="175.1" r="3.5"/>
<path class="st16" d="M162.3,173.1c0,0.4,0.1,0.7-0.1,1.1c-0.1,0.2-0.2,0.3-0.3,0.4l-0.7,0.8c-0.2,0.2-0.4,0.5-0.5,0.8
	c-0.2,0.7,0.4,1.4,0.4,2.2c-0.2,0.4-0.7,0.5-1.1,0.4c-0.2-0.1-0.3-0.1-0.5-0.3l-0.7-0.5c-0.6-0.4-1.1-0.8-1.4-1.4
	c-0.3-0.6-0.2-1.4-0.2-2.1c0-0.4,0-0.9,0-1.3c0-0.4,0.2-0.8,0.3-1.2c0.3-0.7,0.8-1.4,1.5-1.8c0.7-0.5,1.5-0.6,2.3-0.4
	c0.1,0,0.3,0.1,0.4,0.1c0.3,0,0.5-0.2,0.7-0.3c0.6-0.2,1.3,0,1.7,0.5c0.2,0.2,0.2,0.5,0.4,0.7c0.2,0.3,0.6,0.5,0.8,0.9
	c0.2,0.4,0.1,0.8,0.1,1.2c0.1,0.4,0.2,0.7,0.3,1c-0.4-0.1-0.6-0.6-0.8-0.9c-0.4-0.5-1-0.8-1.7-0.8c-0.2,0-0.6,0-0.8,0.1
	C162.1,172.4,162.3,172.9,162.3,173.1z"/>
<path class="st21" d="M162.2,173c0,0.4,0.1,0.7-0.1,1.1c-0.1,0.2-0.2,0.3-0.3,0.4l-0.8,0.8c-0.2,0.2-0.4,0.5-0.5,0.7
	c-0.2,0.7,0.4,1.4,0.4,2.2c-0.2,0.4-0.7,0.5-1.1,0.4c-0.2-0.1-0.3-0.1-0.5-0.3l-0.7-0.5c-0.6-0.4-1.1-0.8-1.4-1.4
	c-0.3-0.6-0.2-1.4-0.2-2.1c0-0.4,0-0.9,0-1.3c0-0.4,0.2-0.8,0.3-1.2c0.3-0.7,0.8-1.4,1.5-1.8c0.7-0.5,1.5-0.6,2.3-0.4
	c0.1,0,0.3,0.1,0.4,0.1c0.3,0,0.5-0.2,0.7-0.3c0.6-0.2,1.3,0,1.7,0.5c0.2,0.2,0.2,0.5,0.4,0.7c0.2,0.3,0.6,0.5,0.8,0.9
	s0.1,0.8,0.1,1.2c0.1,0.4,0.2,0.7,0.3,1c-0.4-0.1-0.6-0.6-0.8-0.9c-0.4-0.5-1-0.8-1.7-0.8c-0.2,0-0.6,0-0.8,0.1
	C162,172.3,162.2,172.7,162.2,173z"/>
<g class="st12">
	<path d="M166,178.4C166,178.4,166,178.3,166,178.4L166,178.4z"/>
	<path d="M153.8,170.8c0.2,0,0.5-0.1,0.6-0.2l-0.1,0.3C154.2,170.9,154,170.9,153.8,170.8z"/>
	<path d="M166.6,178.8c1.8,2.8-2.3,3-2.3,3c-0.3,0-0.6,0-0.9-0.1c0.2,0,0.4,0,0.6,0c0,0,4.4-0.2,2-3.3
		C166.2,178.6,166.4,178.7,166.6,178.8z"/>
	<path d="M159.2,178.7c-0.3,0-0.6,0-0.9-0.1c0.2,0,0.3,0,0.5,0c0.4,0,0.9,0,1.3,0.1C159.9,178.7,159.6,178.7,159.2,178.7z"/>
	<path d="M150.2,174.7l2-5c0.1,0.1,0.2,0.2,0.3,0.3l-1.9,4.7c-0.9,2.1,0.3,2.8,0.3,2.8l6,5.5c2.3,0.9,2.6,5.4,2.6,5.4
		c0.9,1.7-0.4,8.7-0.4,8.7c0.9,1.6,2.2,2.4,3.5,2.7c-1.5-0.3-2.9-1-3.9-2.8c0,0,1.4-7,0.4-8.7c0,0-0.3-4.5-2.6-5.4l-6-5.5
		C150.5,177.5,149.3,176.8,150.2,174.7z"/>
	<path d="M176.2,169.3c0.1,0.1,0.3,0.1,0.5,0.1c0.8,0.7,1.1,6.4,1.1,6.4l-3.8,1.7c0,0-3.8,0-5.3,0.9c-0.8,0.5-1.3,0.5-1.7,0.3
		c0.3,0,0.8-0.1,1.3-0.4c1.6-0.9,5.3-0.9,5.3-0.9l3.8-1.7C177.3,175.7,177,169.5,176.2,169.3z"/>
	<path d="M176.8,169.4c0.5,0.1,1.3,0,1.6-0.9l0.2,0.4C178.1,169.7,177.2,169.5,176.8,169.4z"/>
</g>
<path class="st16" d="M170.7,193.7c0.1-1.9,0.2-4.2,0.2-6c0-4,2.6-5.6,2.6-5.6l4.5-2.8c-2.6,0.7-6.1,1.8-6.4,3.2
	c-0.5,2.2-1.4,2.5-1.1,6.3C170.7,190.5,170.7,192.1,170.7,193.7z"/>
<path class="st16" d="M170,199.2c0,0-0.6,2,1.2,3.3"/>
<path class="st16" d="M159.9,199.2c0,0-0.2,1.5-1.1,2.1"/>
<path class="st16" d="M169.2,228.3c0,0,3.5,1.6,6.4,2c1.5,0.2,2.1-0.2,2.1-0.7c0.1,0.6-0.3,1.3-2.1,1c-3-0.4-6.4-2-6.4-2
	c0-0.2,0-0.5,0-0.7C169.2,228.1,169.2,228.3,169.2,228.3z"/>
<path class="st16" d="M154.8,229.8c2.8-0.3,4.9-2.5,4.9-2.5s-0.1-1.7-0.6-2.8c0.6,1.1,0.7,2.9,0.7,2.9s-2.1,2.2-4.9,2.5
	c-1.4,0.1-2.1-0.3-2.2-0.7C152.8,229.6,153.5,229.9,154.8,229.8z"/>
<linearGradient id="SVGID_00000146483411413452030360000002844372810101418911_" gradientUnits="userSpaceOnUse" x1="483.6996" y1="299.2755" x2="483.6996" y2="312.0021" gradientTransform="matrix(-1 0 0 -1 648.2 461.45)">
	<stop  offset="0" style="stop-color:#808080;stop-opacity:0.25"/>
	<stop  offset="0.54" style="stop-color:#808080;stop-opacity:0.12"/>
	<stop  offset="1" style="stop-color:#808080;stop-opacity:0.1"/>
</linearGradient>
<path style="fill:url(#SVGID_00000146483411413452030360000002844372810101418911_);" d="M158.1,155.8c0,3.5,2.8,6.4,6.4,6.4
	c3.5,0,6.4-2.8,6.4-6.4c0-3.5-2.8-6.4-6.4-6.4c-2,0-3.8,0.9-5,2.5C158.6,153,158.1,154.4,158.1,155.8z"/>
<path class="st10" d="M158.4,155.8c0,3.4,2.7,6.1,6.1,6.1c3.4,0,6.1-2.7,6.1-6.1c0-3.4-2.7-6.1-6.1-6.1c-1.9,0-3.7,0.9-4.9,2.4
	C158.8,153.1,158.4,154.5,158.4,155.8z"/>
<line class="st23" x1="161.1" y1="152.8" x2="161.1" y2="155.2"/>
<line class="st23" x1="165.6" y1="155" x2="163.1" y2="156.6"/>
<line class="st23" x1="163.1" y1="151.3" x2="166" y2="152.5"/>
<line class="st23" x1="168" y1="155.4" x2="167.8" y2="159.1"/>
<line class="st23" x1="166" y1="160.2" x2="162.8" y2="158.6"/>
<line class="st23" x1="161.1" y1="158.8" x2="161.1" y2="160.9"/>
<line class="st23" x1="159.9" y1="157.2" x2="158.4" y2="156.6"/>
<line class="st23" x1="167.8" y1="152.3" x2="167.7" y2="150.6"/>
<line class="st23" x1="168.8" y1="154.3" x2="170.6" y2="154.8"/>
<polygon class="st4" points="169.3,154.3 167.9,152 165.6,152.3 165.6,155 168,156.2 "/>
<path class="st4" d="M159.6,152.1l1.4,0.7c0.5-0.6,2.4-1.4,2.4-1.4l-0.2-1.6C161.8,150.1,160.5,150.9,159.6,152.1z"/>
<polygon class="st4" points="163.5,156.3 161,155.2 159.6,157.1 161.1,159.4 163.5,159 "/>
<path class="st4" d="M165.6,159.9v2c1.6-0.3,3-1.2,4-2.6l-1.7-0.7L165.6,159.9z"/>
<linearGradient id="SVGID_00000088119725763867156300000008628451271742438843_" gradientUnits="userSpaceOnUse" x1="568.1941" y1="255.2339" x2="568.1941" y2="265.9106" gradientTransform="matrix(-1 0 0 -1 648.2 461.45)">
	<stop  offset="0" style="stop-color:#808080;stop-opacity:0.25"/>
	<stop  offset="0.54" style="stop-color:#808080;stop-opacity:0.12"/>
	<stop  offset="1" style="stop-color:#808080;stop-opacity:0.1"/>
</linearGradient>
<path style="fill:url(#SVGID_00000088119725763867156300000008628451271742438843_);" d="M74.7,200.9c0,2.9,2.4,5.3,5.3,5.3
	c2.9,0,5.3-2.4,5.3-5.3c0-2.9-2.4-5.3-5.3-5.3c-1.7,0-3.2,0.8-4.2,2.1C75.1,198.6,74.7,199.7,74.7,200.9z"/>
<path class="st10" d="M74.9,200.9c0,2.8,2.3,5.1,5.1,5.1s5.1-2.3,5.1-5.1c0-2.8-2.3-5.1-5.1-5.1c-1.6,0-3.1,0.7-4.1,2
	C75.2,198.6,74.9,199.7,74.9,200.9z"/>
<line class="st23" x1="77.1" y1="198.4" x2="77.1" y2="200.3"/>
<line class="st23" x1="80.9" y1="200.2" x2="78.9" y2="201.5"/>
<line class="st23" x1="78.9" y1="197.1" x2="81.3" y2="198.1"/>
<line class="st23" x1="82.9" y1="200.5" x2="82.8" y2="203.6"/>
<line class="st23" x1="81.3" y1="204.6" x2="78.5" y2="203.2"/>
<line class="st23" x1="77.1" y1="203.4" x2="77.1" y2="205.1"/>
<line class="st23" x1="76.1" y1="202.1" x2="74.9" y2="201.5"/>
<line class="st23" x1="82.8" y1="198" x2="82.7" y2="196.5"/>
<line class="st23" x1="83.6" y1="199.6" x2="85.1" y2="200.1"/>
<polygon class="st4" points="84,199.6 82.8,197.6 80.9,198 80.9,200.2 83,201.2 "/>
<path class="st4" d="M75.9,197.7l1.2,0.6c0.4-0.5,2-1.2,2-1.2l-0.2-1.4C77.8,196.1,76.7,196.8,75.9,197.7z"/>
<polygon class="st4" points="79.2,201.3 77.1,200.3 75.9,202 77.1,203.9 79.2,203.6 "/>
<path class="st4" d="M80.9,204.3v1.6c1.3-0.2,2.5-1,3.3-2.2l-1.5-0.6L80.9,204.3z"/>
<linearGradient id="SVGID_00000044156999564689962980000012325800175286574014_" gradientUnits="userSpaceOnUse" x1="572.1139" y1="248.818" x2="572.1139" y2="259.4948" gradientTransform="matrix(-1 0 0 -1 648.2 461.45)">
	<stop  offset="0" style="stop-color:#808080;stop-opacity:0.25"/>
	<stop  offset="0.54" style="stop-color:#808080;stop-opacity:0.12"/>
	<stop  offset="1" style="stop-color:#808080;stop-opacity:0.1"/>
</linearGradient>
<path style="fill:url(#SVGID_00000044156999564689962980000012325800175286574014_);" d="M70.7,207.3c0,2.9,2.4,5.3,5.3,5.3
	s5.3-2.4,5.3-5.3c0-2.9-2.4-5.3-5.3-5.3c-1.7,0-3.2,0.8-4.2,2.1C71.1,205,70.7,206.1,70.7,207.3z"/>
<path class="st10" d="M70.9,207.3c0,2.8,2.3,5.1,5.1,5.1c2.8,0,5.1-2.3,5.1-5.1c0-2.8-2.3-5.1-5.1-5.1c-1.6,0-3.1,0.7-4.1,2
	C71.3,205.1,70.9,206.2,70.9,207.3z"/>
<line class="st23" x1="73.2" y1="204.8" x2="73.2" y2="206.8"/>
<line class="st23" x1="77" y1="206.6" x2="74.9" y2="208"/>
<line class="st23" x1="74.9" y1="203.5" x2="77.4" y2="204.5"/>
<line class="st23" x1="79" y1="206.9" x2="78.9" y2="210"/>
<line class="st23" x1="77.4" y1="211" x2="74.6" y2="209.6"/>
<line class="st23" x1="73.2" y1="209.8" x2="73.2" y2="211.6"/>
<line class="st23" x1="72.2" y1="208.5" x2="71" y2="208"/>
<line class="st23" x1="78.9" y1="204.4" x2="78.8" y2="202.9"/>
<line class="st23" x1="79.7" y1="206.1" x2="81.2" y2="206.5"/>
<polygon class="st4" points="80.1,206.1 78.9,204.1 77,204.4 77,206.6 79.1,207.6 "/>
<path class="st4" d="M72,204.2l1.2,0.6c0.4-0.5,2-1.2,2-1.2l-0.2-1.4C73.9,202.5,72.8,203.2,72,204.2z"/>
<polygon class="st4" points="75.2,207.7 73.2,206.8 72,208.4 73.2,210.3 75.2,210 "/>
<path class="st4" d="M77,210.7v1.6c1.3-0.2,2.5-1,3.3-2.2l-1.5-0.6L77,210.7z"/>
</svg>
